<?xml version="1.0" encoding="utf-8"?>
<!-- Generator: Adobe Illustrator 24.3.0, SVG Export Plug-In . SVG Version: 6.00 Build 0)  -->
<svg version="1.1" id="Livello_1" xmlns="http://www.w3.org/2000/svg" xmlns:xlink="http://www.w3.org/1999/xlink" x="0px" y="0px"
	 viewBox="0 0 512 512" style="enable-background:new 0 0 512 512;" xml:space="preserve">
<style type="text/css">
	.st0{fill:#FFFFFF;}
</style>
<path class="st0" d="M18.9,350.34l108.5-46.51c12.78-5.54,27.78-1.8,36.47,8.98l44.08,53.8c69.24-34,125.52-90.28,159.5-159.5
	l-53.84-43.23c-10.75-8.78-14.42-23.67-8.98-36.45l46.52-108.5c6.1-13.9,21.1-21.52,35.78-18.12l100.8,23.25
	c14.25,3.25,24.22,15.79,24.22,30.45c0,252.3-205.2,457.5-457.49,457.52c-14.67,0-27.19-9.97-30.46-24.22L0.75,387
	C-2.65,372.4,5.85,357.2,18.9,350.34z"/>
</svg>
